<?xml version="1.0" standalone="no"?>
<!DOCTYPE svg PUBLIC "-//W3C//DTD SVG 20010904//EN"
 "http://www.w3.org/TR/2001/REC-SVG-20010904/DTD/svg10.dtd">
<svg version="1.0" xmlns="http://www.w3.org/2000/svg"
 width="260.000000pt" height="260.000000pt" viewBox="0 0 260.000000 260.000000"
 preserveAspectRatio="xMidYMid meet">
<metadata>
Created by potrace 1.11, written by Peter Selinger 2001-2013
</metadata>
<g transform="translate(0.000000,260.000000) scale(0.100000,-0.100000)"
fill="#000000" stroke="none">
<path d="M1170 2594 c-165 -21 -315 -66 -460 -140 -357 -182 -603 -509 -687
-914 -24 -117 -24 -363 0 -480 111 -534 503 -926 1037 -1037 117 -24 363 -24
480 0 408 85 738 335 920 697 97 194 134 356 134 580 0 109 -5 180 -17 240
-109 526 -494 918 -1012 1031 -88 19 -318 32 -395 23z m335 -594 c243 -75 420
-254 496 -500 34 -108 34 -292 0 -400 -77 -248 -253 -424 -501 -501 -62 -20
-97 -24 -200 -24 -103 0 -138 4 -200 24 -248 77 -424 253 -501 501 -34 108
-34 292 0 400 85 274 302 470 579 520 78 15 248 4 327 -20z"/>
</g>
</svg>
